<svg width="410" height="526" viewBox="0 0 410 526" fill="none" xmlns="http://www.w3.org/2000/svg">
<g clip-path="url(#clip0_0_26)">
<rect width="410" height="526" rx="10" fill="#52BD94"/>
<path d="M50 1.5L27 122.5L103.5 56L128 149L209 56L228 149L276.5 97.5L291.5 223L372 97.5L377.5 229.5L409.5 263.5" stroke="#30946D" stroke-width="5"/>
<path d="M-16 206.303C9.82648 206.56 64.2411 214.608 75.2877 244.751C86.3342 274.895 198.027 223.477 252.493 194L264 473.901C219.507 492.1 131.748 535.726 136.658 564.638C142.795 600.78 120.548 609.238 81.4247 609.238C42.3014 609.238 48.4384 621.541 29.2603 630" stroke="#30946D" stroke-width="5"/>
</g>
<defs>
<clipPath id="clip0_0_26">
<rect width="410" height="526" rx="10" fill="white"/>
</clipPath>
</defs>
</svg>
